<svg height="1em" viewBox="-26 0 512 512" width="1em" xmlns="http://www.w3.org/2000/svg"><path d="m337.667969 34.96875h-199.335938l92 232.667969zm0 0" fill="#ffda2d" fill-rule="evenodd"/><path d="m230 34.96875v231.824219l.332031.84375 107.335938-232.667969zm0 0" fill="#fdbf00" fill-rule="evenodd"/><path d="m0 497v-45.03125l6.582031-15-6.582031-15v-30l11-15-11-15v-146.96875c0-8.285156 6.714844-15 15-15 24.8125 0 45-20.1875 45-45v-140c0-8.285156 6.714844-15 15-15h65c6.417969 0 12.125 4.085938 14.199219 10.160156l75 220c.53125 1.558594.800781 3.195313.800781 4.839844v126.96875l-7.167969 15.03125 7.167969 14.96875v30l-6.832031 15.03125 6.832031 14.96875v15.03125c0 24.8125-20.1875 45-45 45h-170c-8.285156 0-15-6.714844-15-15zm0 0" fill="#fdbf00"/><path d="m110 331.96875c-8.285156 0-15-6.714844-15-15v-56c0-8.285156 6.714844-15 15-15s15 6.714844 15 15v56c0 8.285156-6.714844 15-15 15zm0 0" fill="#f5f0eb"/><path d="m445 512h-170c-24.8125 0-45-20.1875-45-45v-15.03125l6-15-6-15v-30l4.5-14.167969-4.5-15.832031v-126.96875c0-1.644531.269531-3.28125.800781-4.839844l75-220c2.070313-6.074218 7.78125-10.160156 14.199219-10.160156h65c8.285156 0 15 6.714844 15 15v140c0 24.8125 20.1875 45 45 45 8.285156 0 15 6.714844 15 15v147l-7 13.636719 7 16.363281v30l-10.167969 15 10.167969 15v45c0 8.285156-6.714844 15-15 15zm0 0" fill="#ff9100"/><path d="m350 332c-8.285156 0-15-6.714844-15-15v-56c0-8.285156 6.714844-15 15-15s15 6.714844 15 15v56c0 8.285156-6.714844 15-15 15zm0 0" fill="#dcd2cd"/><path d="m0 361.96875h230v30h-230zm0 0" fill="#f5f0eb"/><path d="m0 421.96875h230v30h-230zm0 0" fill="#f5f0eb"/><g fill="#dcd2cd"><path d="m230 362h230v30h-230zm0 0"/><path d="m230 422h230v30h-230zm0 0"/></g></svg>